<svg width="102" height="30" viewBox="0 0 102 30" fill="none" xmlns="http://www.w3.org/2000/svg">
<g clip-path="url(#clip0_172687_9169)">
<path d="M24.5505 3.63307C24.5505 3.68812 24.5505 3.68812 24.4954 3.74316C23.6147 5.83491 22.2385 7.70647 20.4771 9.19271C20.2018 9.46793 19.9266 9.1927 19.8165 9.08261C18.2752 7.76151 16.2385 7.21105 14.2018 7.48628C12.2202 7.65142 10.4037 8.5872 9.19267 10.1285C9.08258 10.2386 9.02753 10.3487 8.91744 10.4588C8.64221 10.789 8.42203 11.1744 8.25689 11.5597C8.20184 11.6698 8.1468 11.7248 8.1468 11.8349C8.03671 12 7.98166 12.2202 7.92661 12.3854C7.87157 12.5505 7.81652 12.7707 7.76148 12.9358C7.48625 13.9266 7.4312 15.0276 7.54129 16.0734C7.54129 16.2936 7.59634 16.5138 7.65139 16.734C7.76148 17.3395 7.98166 17.945 8.31194 18.4955C8.42203 18.6606 8.53212 18.8808 8.64221 19.0459C8.7523 19.2111 8.86239 19.3762 8.97249 19.5413C9.08258 19.7065 9.24772 19.8716 9.35781 20.0367C9.4679 20.2019 9.63304 20.367 9.79817 20.5322C9.96331 20.6973 9.52295 20.9175 9.4679 20.9175C9.02753 21.1377 8.64221 21.4679 8.31194 21.7982L8.25689 21.9083C8.1468 22.0184 8.03671 22.1285 7.98166 22.2386C6.93579 23.6147 6.16515 25.156 5.72478 26.7523C4.56882 25.9266 3.57799 24.5505 2.7523 23.4496C2.53212 23.1193 2.31194 22.789 2.09175 22.4588C1.98166 22.2386 1.81652 22.0184 1.70643 21.7982C1.59634 21.578 1.48625 21.3578 1.37616 21.0826C1.32111 20.9725 1.26606 20.8074 1.21102 20.6973C0.990835 20.1468 0.825697 19.5964 0.660559 19.0459C0.550468 18.6055 0.440376 18.1652 0.330284 17.7799C0.275238 17.5597 0.275238 17.3395 0.220192 17.1744C0.0550547 16.1835 0.0550547 15.1927 0.110101 14.2019C0.110101 13.8716 0.165146 13.4863 0.220192 13.156C0.275238 12.8257 0.330284 12.6055 0.38533 12.3303C0.605513 11.2844 0.935789 10.2386 1.37616 9.24775C1.59634 8.75234 1.81652 8.25693 2.09175 7.81656C2.20184 7.59637 2.36698 7.32115 2.53212 7.10096C3.90827 4.89913 5.88992 3.08261 8.20184 1.92665C8.64221 1.70647 9.08258 1.48628 9.57799 1.2661C9.90827 1.15601 10.2936 0.990871 10.6789 0.880779C11.2844 0.715641 11.945 0.550504 12.6055 0.440412L13.2661 0.33032C15.5229 4.51207e-05 17.7798 0.220229 19.9266 0.935825C21.5229 1.54133 23.0642 2.36702 24.4404 3.35784C24.5505 3.41289 24.6055 3.46793 24.6606 3.57803C24.5505 3.46793 24.5505 3.52298 24.5505 3.63307Z" fill="#4D37A5"/>
<path d="M24.1651 26.9174C22.1284 28.4587 19.7064 29.4495 17.2294 29.8348C14.0367 30.2752 10.789 29.7247 7.92661 28.2385C7.10092 27.7981 6.33028 27.2477 5.55964 26.6972C5.44955 26.5871 5.3945 26.477 5.3945 26.3669C5.88991 24.8257 6.7156 23.3945 7.81652 22.1835C7.92661 22.0734 8.0367 21.9633 8.09175 21.8532L8.14679 21.7431C8.42202 21.4679 8.64221 21.1926 8.91744 20.9724C9.02753 20.8624 9.4679 20.3669 9.63303 20.477C9.85322 20.6422 10.0184 20.7523 10.2385 20.8624L10.4587 20.9724C12.8807 22.5137 16.2936 22.8991 18.7706 21.4679C19.0459 21.3027 19.2661 21.1376 19.4862 20.9174C19.8165 20.5321 20.422 20.5321 20.8073 20.8624L20.8624 20.9174C22.5138 22.1835 23.7798 23.8899 24.4404 25.9266C24.6606 26.3119 24.5505 26.7523 24.1651 26.9174Z" fill="#7A71BC"/>
<path d="M19.8165 15.0825C19.7615 17.7247 17.5596 19.8165 14.8624 19.7614C12.1651 19.7064 10.1284 17.5045 10.1835 14.8073C10.2385 12.1651 12.4404 10.0733 15.1376 10.1284C17.7798 10.2385 19.8716 12.4403 19.8165 15.0825Z" fill="#FD4363"/>
<path d="M38.5321 16.2936C38.2569 17.3945 37.7064 18.3303 36.8257 19.0459C35.945 19.7615 34.8991 20.0917 33.7431 20.0917C32.367 20.0917 31.211 19.5963 30.2752 18.6606C29.3395 17.7248 28.8441 16.5688 28.8441 15.1927C28.8441 13.8165 29.2844 12.6606 30.2202 11.7248C31.156 10.789 32.3119 10.2936 33.633 10.2936C34.8441 10.2936 35.8349 10.6239 36.7707 11.3395C37.7064 12.055 38.2569 12.9908 38.4771 14.1468H35.7248C35.3395 13.2661 34.6239 12.8807 33.6881 12.8807C33.0275 12.8807 32.5321 13.1009 32.1468 13.5963C31.7615 14.0367 31.5963 14.5872 31.5963 15.2477C31.5963 15.9083 31.8165 16.4587 32.2019 16.8991C32.5872 17.3395 33.1376 17.5596 33.7982 17.5596C34.6789 17.5596 35.3395 17.1743 35.7798 16.3486H38.5321V16.2936Z" fill="#332D5F"/>
<path d="M44.8624 13.0459C44.1468 13.0459 43.6514 13.156 43.3211 13.3761C42.8807 13.6514 42.7156 14.0917 42.7156 14.7523V19.7615H39.9633V10.6239H42.5505V11.5596H42.6055C43.0459 10.6789 43.8165 10.2936 44.9174 10.2936V13.0459H44.8624Z" fill="#332D5F"/>
<path d="M55.0459 16.0183H48.2202C48.3853 17.1743 49.1009 17.7248 50.367 17.7248C51.0275 17.7248 51.578 17.4495 52.0184 16.8991H54.8257C54.4404 17.8349 53.8349 18.6055 53.0642 19.156C52.2385 19.7615 51.3578 20.0367 50.367 20.0367C49.0459 20.0367 47.8899 19.5413 46.9541 18.6055C46.0184 17.6697 45.5229 16.5138 45.5229 15.1927C45.5229 13.8716 45.9633 12.7156 46.8991 11.7248C47.8349 10.7339 48.9908 10.2385 50.3119 10.2385C51.6881 10.2385 52.8441 10.7339 53.7798 11.7248C54.6606 12.6605 55.156 13.8716 55.156 15.2477C55.1009 15.5229 55.1009 15.7982 55.0459 16.0183ZM52.4037 14.1468C52.1835 13.1009 51.4679 12.5505 50.3119 12.5505C49.156 12.5505 48.4404 13.1009 48.2202 14.1468H52.4037Z" fill="#332D5F"/>
<path d="M63.578 19.7614V18.7706H63.5229C63.2477 19.211 62.8624 19.5413 62.367 19.7614C61.9266 19.9266 61.4312 20.0367 60.8257 20.0367C59.4495 20.0367 58.3486 19.5413 57.4679 18.6055C56.6422 17.6697 56.2018 16.5137 56.2018 15.1376C56.2018 13.7614 56.5872 12.6055 57.4129 11.7247C58.2936 10.789 59.3945 10.2936 60.7156 10.2936C61.8165 10.2936 62.6973 10.6789 63.4128 11.3945V7.54126H66.1651V19.7614H63.578ZM62.9174 13.4862C62.4771 13.0458 61.9266 12.8257 61.2661 12.8257C60.6055 12.8257 60.0551 13.0458 59.6147 13.4862C59.1743 13.9266 58.9541 14.477 58.9541 15.1376C58.9541 15.7981 59.1743 16.3486 59.6147 16.789C60.0551 17.2293 60.6055 17.4495 61.2661 17.4495C61.9266 17.4495 62.5321 17.2293 62.9725 16.789C63.4128 16.3486 63.633 15.7981 63.633 15.0825C63.578 14.477 63.3578 13.9266 62.9174 13.4862Z" fill="#332D5F"/>
<path d="M68.1468 9.633V7.54126H70.8991V9.633H68.1468ZM68.1468 19.7614V10.6238H70.8991V19.7614H68.1468Z" fill="#332D5F"/>
<path d="M76.1285 12.6605V19.7064H73.3762V12.6605H72V10.5688H73.3762V7.54126H76.1285V10.5688H77.4496V12.6605H76.1285Z" fill="#332D5F"/>
<path d="M78.8257 19.7614V16.9541H81.6881V19.7614H78.8257Z" fill="#332D5F"/>
<path d="M88.9541 19.7614H86.3119L83.0092 10.6238H85.8165L87.578 16.3486H87.633L89.3945 10.6238H92.2018L88.9541 19.7614Z" fill="#332D5F"/>
<path d="M99.3028 19.7615V14.7523C99.3028 14.1468 99.1927 13.7064 99.0275 13.4312C98.8074 13.0459 98.422 12.8807 97.8716 12.8807C97.2661 12.8807 96.8808 13.0459 96.6055 13.4312C96.3853 13.7064 96.2752 14.2018 96.2752 14.8073V19.7615H93.5229V10.6239H96.0551V11.5596H96.1101C96.6606 10.6789 97.4863 10.2936 98.5872 10.2936C99.523 10.2936 100.294 10.5688 100.954 11.0642C101.339 11.3945 101.615 11.8349 101.78 12.3853C101.89 12.8257 102 13.3761 102 13.9817V19.7064H99.3028V19.7615Z" fill="#332D5F"/>
</g>
<defs>
<clipPath id="clip0_172687_9169">
<rect width="102" height="30" fill="white"/>
</clipPath>
</defs>
</svg>
