<svg width="102" height="30" viewBox="0 0 102 30" fill="none" xmlns="http://www.w3.org/2000/svg">
<g clip-path="url(#clip0_172711_10347)">
<path d="M24.5505 3.63306C24.5505 3.68811 24.5505 3.68811 24.4954 3.74315C23.6147 5.8349 22.2385 7.70646 20.4771 9.1927C20.367 9.30279 20.3119 9.30279 20.2018 9.30279C20.0367 9.30279 19.8716 9.13765 19.7615 9.02756C18.2202 7.70646 16.1835 7.156 14.1468 7.43123C12.1651 7.59636 10.3486 8.53214 9.13761 10.0734C9.02752 10.1835 8.97247 10.2936 8.86238 10.4037C8.58715 10.734 8.36697 11.1193 8.20183 11.5046C8.14678 11.6147 8.09174 11.6698 8.09174 11.7799C7.98165 11.945 7.9266 12.1652 7.87156 12.3303C7.81651 12.4954 7.76146 12.7156 7.70642 12.8808C7.43119 13.9266 7.37614 14.9725 7.48623 16.0184C7.48623 16.2386 7.54128 16.4587 7.59633 16.6789C7.70642 17.2844 7.9266 17.8899 8.25688 18.4404C8.36697 18.6055 8.47706 18.8257 8.58715 18.9909C8.58715 19.0459 8.6422 19.101 8.69724 19.101C7.21101 20.2569 5.11926 22.2936 4.18348 25.3211C3.63302 24.6606 3.13761 24 2.69724 23.3945C2.47706 23.0643 2.25688 22.734 2.03669 22.4037C1.9266 22.1835 1.76146 21.9633 1.65137 21.7432C1.54128 21.523 1.43119 21.3028 1.3211 21.0276C1.26605 20.9175 1.21101 20.7523 1.15596 20.6422C0.935776 20.0918 0.770638 19.5413 0.605501 18.9909C0.495409 18.5505 0.385317 18.1101 0.275225 17.7248C0.22018 17.5046 0.22018 17.2844 0.165134 17.1193C0.055042 16.1285 -3.84077e-06 15.1376 0.055042 14.1468C0.055042 13.8165 0.110088 13.4312 0.165134 13.101C0.22018 12.7707 0.275226 12.5505 0.330271 12.2753C0.550455 11.2294 0.88073 10.1835 1.3211 9.1927C1.54128 8.69728 1.76146 8.20187 2.03669 7.7615C2.14679 7.54132 2.31192 7.26609 2.47706 7.04591C3.85321 4.84407 5.83486 3.02756 8.14678 1.87159C8.58715 1.65141 9.08256 1.43123 9.52293 1.21104C9.85321 1.10095 10.2385 0.935814 10.6238 0.825722C11.2294 0.660585 11.8899 0.495447 12.5505 0.385355L13.211 0.275264C15.3578 -0.165103 17.6697 3.41646e-05 19.8165 0.71563C21.4128 1.32114 22.9541 2.09178 24.3303 3.13765C24.4404 3.19269 24.4954 3.24774 24.5505 3.35783C24.5505 3.46792 24.6055 3.52297 24.5505 3.63306Z" fill="white"/>
<path d="M24.1651 26.9174C22.1284 28.4587 19.7064 29.3945 17.2294 29.8348C14.0367 30.2752 10.789 29.7247 7.92661 28.2385C7.10092 27.7981 6.33028 27.2477 5.55964 26.6972C5.55964 26.6972 5.55964 26.6972 5.50459 26.6422C5.44955 26.5871 5.3945 26.477 5.3945 26.3119C5.88991 24.7706 6.7156 23.3394 7.81652 22.1284C7.87156 22.0734 7.87156 22.0183 7.92661 22.0183C7.98166 21.9633 8.0367 21.9082 8.09175 21.7981L8.14679 21.7431C8.42202 21.4679 8.64221 21.1926 8.91744 20.9724C9.02753 20.8624 9.4679 20.3669 9.63303 20.477C9.85322 20.5871 10.0184 20.7523 10.2385 20.8624L10.4587 20.9724C12.8807 22.5137 16.2936 22.8991 18.7706 21.4679C19.0459 21.3027 19.2661 21.1376 19.4862 20.9174C19.8716 20.5321 20.422 20.5321 20.8073 20.8624L20.8624 20.9174C22.5138 22.1835 23.7798 23.8899 24.4404 25.9266C24.6606 26.2569 24.5505 26.7523 24.1651 26.9174Z" fill="white"/>
<path d="M19.8165 15.0825C19.7615 17.7247 17.5596 19.8165 14.8624 19.7614C12.1651 19.7064 10.1284 17.5045 10.1835 14.8073C10.2385 12.1651 12.4404 10.0733 15.1376 10.1284C17.7798 10.2385 19.8716 12.4403 19.8165 15.0825Z" fill="white"/>
<path d="M38.5321 16.2936C38.2569 17.3945 37.7064 18.3303 36.8257 19.0459C35.945 19.7615 34.8991 20.0917 33.7431 20.0917C32.367 20.0917 31.211 19.5963 30.2752 18.6606C29.3395 17.7248 28.844 16.5688 28.844 15.1927C28.844 13.8165 29.2844 12.6606 30.2202 11.7248C31.156 10.789 32.3119 10.2936 33.633 10.2936C34.844 10.2936 35.8349 10.6239 36.7706 11.3395C37.7064 12.055 38.2569 12.9908 38.4771 14.1468H35.7248C35.3394 13.2661 34.6239 12.8807 33.6881 12.8807C33.0275 12.8807 32.5321 13.1009 32.1468 13.5963C31.7615 14.0367 31.5963 14.5872 31.5963 15.2477C31.5963 15.9083 31.8165 16.4587 32.2018 16.8991C32.5872 17.3395 33.1376 17.5596 33.7982 17.5596C34.6789 17.5596 35.3394 17.1743 35.7798 16.3486H38.5321V16.2936Z" fill="white"/>
<path d="M44.8624 13.0459C44.1468 13.0459 43.6514 13.156 43.3211 13.3761C42.8807 13.6514 42.7156 14.0917 42.7156 14.7523V19.7615H39.9633V10.5688H42.5505V11.5596H42.6055C43.0459 10.6789 43.8165 10.2936 44.9174 10.2936V13.0459H44.8624Z" fill="white"/>
<path d="M55.0459 16.0183H48.2202C48.3853 17.1743 49.1009 17.7248 50.367 17.7248C51.0275 17.7248 51.578 17.4495 52.0184 16.8991H54.8257C54.4404 17.8349 53.8349 18.6055 53.0642 19.156C52.2385 19.7615 51.3578 20.0367 50.367 20.0367C49.0459 20.0367 47.8899 19.5413 46.9541 18.6055C46.0184 17.6697 45.5229 16.5138 45.5229 15.1927C45.5229 13.8716 45.9633 12.7156 46.8991 11.7248C47.8349 10.7339 48.9908 10.2385 50.3119 10.2385C51.6881 10.2385 52.844 10.7339 53.7798 11.7248C54.6606 12.6605 55.156 13.8716 55.156 15.2477C55.1009 15.5229 55.1009 15.7982 55.0459 16.0183ZM52.4037 14.1468C52.1835 13.1009 51.4679 12.5505 50.3119 12.5505C49.156 12.5505 48.4404 13.1009 48.2202 14.1468H52.4037Z" fill="white"/>
<path d="M63.578 19.7614V18.7706H63.5229C63.2477 19.211 62.8624 19.5413 62.367 19.7614C61.9266 19.9266 61.4312 20.0367 60.8257 20.0367C59.4496 20.0367 58.3486 19.5413 57.4679 18.6055C56.6422 17.6697 56.2018 16.5137 56.2018 15.1376C56.2018 13.7614 56.5872 12.6055 57.4129 11.7247C58.2936 10.789 59.3945 10.2936 60.7156 10.2936C61.8165 10.2936 62.6973 10.6789 63.4129 11.3945V7.54126H66.1651V19.7614H63.578ZM62.9174 13.4862C62.4771 13.0458 61.9266 12.8257 61.2661 12.8257C60.6055 12.8257 60.0551 13.0458 59.6147 13.4862C59.1743 13.9266 58.9541 14.477 58.9541 15.1376C58.9541 15.7981 59.1743 16.3486 59.6147 16.789C60.0551 17.2293 60.6055 17.4495 61.2661 17.4495C61.9266 17.4495 62.5321 17.2293 62.9725 16.789C63.4129 16.3486 63.633 15.7981 63.633 15.0825C63.578 14.477 63.3578 13.9266 62.9174 13.4862Z" fill="white"/>
<path d="M68.1468 9.633V7.54126H70.8991V9.633H68.1468ZM68.1468 19.7614V10.5688H70.8991V19.7064H68.1468V19.7614Z" fill="white"/>
<path d="M76.1284 12.6605V19.7064H73.3761V12.6605H72V10.5688H73.3761V7.54126H76.1284V10.5688H77.4495V12.6605H76.1284Z" fill="white"/>
<path d="M78.8257 19.7614V16.9541H81.6881V19.7614H78.8257Z" fill="white"/>
<path d="M88.9541 19.7614H86.3119L83.0092 10.6238H85.8165L87.578 16.3486H87.633L89.3945 10.6238H92.2018L88.9541 19.7614Z" fill="white"/>
<path d="M99.3027 19.7615V14.7523C99.3027 14.1468 99.1927 13.7064 99.0275 13.4312C98.8073 13.0459 98.422 12.8807 97.8716 12.8807C97.2661 12.8807 96.8807 13.0459 96.6055 13.4312C96.3853 13.7064 96.2752 14.2018 96.2752 14.8073V19.7615H93.5229V10.5688H96.055V11.5596H96.1101C96.6606 10.6789 97.4862 10.2936 98.5872 10.2936C99.5229 10.2936 100.294 10.5688 100.954 11.0642C101.339 11.3945 101.615 11.8349 101.78 12.3853C101.89 12.8257 102 13.3761 102 13.9817V19.7064H99.3027V19.7615Z" fill="white"/>
</g>
<defs>
<clipPath id="clip0_172711_10347">
<rect width="102" height="30" fill="white"/>
</clipPath>
</defs>
</svg>
